<svg width="296" height="198" viewBox="0 0 296 198" fill="none" xmlns="http://www.w3.org/2000/svg">
<mask id="path-1-inside-1_543_294" fill="white">
<path fill-rule="evenodd" clip-rule="evenodd" d="M10 0C4.47715 0 0 4.47716 0 10V170C0 175.523 4.47716 180 10 180H29.6795L47 198L64.3205 180H286C291.523 180 296 175.523 296 170V10C296 4.47715 291.523 0 286 0H10Z"/>
</mask>
<path fill-rule="evenodd" clip-rule="evenodd" d="M10 0C4.47715 0 0 4.47716 0 10V170C0 175.523 4.47716 180 10 180H29.6795L47 198L64.3205 180H286C291.523 180 296 175.523 296 170V10C296 4.47715 291.523 0 286 0H10Z" fill="white"/>
<path d="M29.6795 180L30.4001 179.307L30.105 179H29.6795V180ZM47 198L46.2794 198.693L47 199.442L47.7206 198.693L47 198ZM64.3205 180V179H63.895L63.5999 179.307L64.3205 180ZM1 10C1 5.02944 5.02944 1 10 1V-1C3.92487 -1 -1 3.92487 -1 10H1ZM1 170V10H-1V170H1ZM10 179C5.02944 179 1 174.971 1 170H-1C-1 176.075 3.92487 181 10 181V179ZM29.6795 179H10V181H29.6795V179ZM28.9589 180.693L46.2794 198.693L47.7206 197.307L30.4001 179.307L28.9589 180.693ZM47.7206 198.693L65.0411 180.693L63.5999 179.307L46.2794 197.307L47.7206 198.693ZM286 179H64.3205V181H286V179ZM295 170C295 174.971 290.971 179 286 179V181C292.075 181 297 176.075 297 170H295ZM295 10V170H297V10H295ZM286 1C290.971 1 295 5.02944 295 10H297C297 3.92487 292.075 -1 286 -1V1ZM10 1H286V-1H10V1Z" fill="#FF8CAA" mask="url(#path-1-inside-1_543_294)"/>
</svg>
