<svg width="68" height="20" viewBox="0 0 68 20" fill="none" xmlns="http://www.w3.org/2000/svg">
<rect x="0.5" y="0.5" width="67" height="19" rx="9.5" stroke="#E9E9E9"/>
<path d="M24.08 3.3H25.1V4.695C25.1 7.26 23.63 9.375 21.35 10.245L20.705 9.24C22.745 8.505 24.08 6.72 24.08 4.695V3.3ZM24.305 3.3H25.31V4.785C25.31 6.615 26.66 8.31 28.61 8.985L27.98 9.975C25.775 9.165 24.305 7.14 24.305 4.785V3.3ZM30.02 2.61H31.265V10.815H30.02V2.61ZM30.92 6.18H33.275V7.23H30.92V6.18ZM22.46 11.49H31.265V16.17H30.02V12.525H22.46V11.49ZM44.8538 2.61H46.0538V16.17H44.8538V2.61ZM39.9188 7.47H42.5138V8.505H39.9188V7.47ZM42.1388 2.925H43.3088V15.48H42.1388V2.925ZM37.3088 4.71H38.2688V6.435C38.2688 9.405 37.1288 12.21 35.1338 13.47L34.3688 12.54C36.2588 11.4 37.3088 8.925 37.3088 6.435V4.71ZM37.5638 4.71H38.5238V6.435C38.5238 8.79 39.5438 11.145 41.4038 12.225L40.6388 13.14C38.6588 11.94 37.5638 9.27 37.5638 6.435V4.71ZM34.7438 4.185H40.9388V5.22H34.7438V4.185Z" fill="#4F4C4C"/>
</svg>
