<svg width="68" height="20" viewBox="0 0 68 20" fill="none" xmlns="http://www.w3.org/2000/svg">
<rect x="0.5" y="0.5" width="67" height="19" rx="9.5" stroke="#E9E9E9"/>
<path d="M20.75 9.06H33.005V10.095H20.75V9.06ZM22.295 6.765H31.58V7.77H22.295V6.765ZM22.295 3.15H31.475V4.17H23.525V7.245H22.295V3.15ZM26.855 11.265C29.75 11.265 31.505 12.15 31.505 13.71C31.505 15.27 29.75 16.14 26.855 16.14C23.96 16.14 22.205 15.27 22.205 13.71C22.205 12.15 23.96 11.265 26.855 11.265ZM26.855 12.225C24.74 12.225 23.465 12.765 23.465 13.71C23.465 14.64 24.74 15.165 26.855 15.165C28.985 15.165 30.245 14.64 30.245 13.71C30.245 12.765 28.985 12.225 26.855 12.225ZM34.5338 10.065H46.8338V11.085H34.5338V10.065ZM36.0938 2.955H45.2438V6.24H37.3538V8.07H36.1238V5.325H44.0288V3.93H36.0938V2.955ZM36.1238 7.665H45.5438V8.64H36.1238V7.665ZM40.0538 8.175H41.2988V10.575H40.0538V8.175ZM35.8988 12.12H45.3338V16.05H44.0888V13.14H35.8988V12.12Z" fill="#4F4C4C"/>
</svg>
