<svg width="150" height="30" viewBox="0 0 150 30" fill="none" xmlns="http://www.w3.org/2000/svg">
<path d="M0.193182 4.49503V1.18182H17.6009V4.49503H10.8572V23H6.93679V4.49503H0.193182ZM20.7862 23V6.63636H24.6428V23H20.7862ZM22.7251 4.31392C22.1143 4.31392 21.5888 4.11151 21.1484 3.70668C20.7081 3.29474 20.4879 2.80114 20.4879 2.22585C20.4879 1.64347 20.7081 1.14986 21.1484 0.745027C21.5888 0.333096 22.1143 0.12713 22.7251 0.12713C23.343 0.12713 23.8686 0.333096 24.3018 0.745027C24.7422 1.14986 24.9624 1.64347 24.9624 2.22585C24.9624 2.80114 24.7422 3.29474 24.3018 3.70668C23.8686 4.11151 23.343 4.31392 22.7251 4.31392ZM32.465 13.4119V23H28.6085V6.63636H32.2946V9.4169H32.4863C32.8627 8.50071 33.4629 7.77273 34.2868 7.23295C35.1177 6.69318 36.144 6.4233 37.3656 6.4233C38.4949 6.4233 39.4785 6.66477 40.3166 7.14773C41.1618 7.63068 41.8152 8.33026 42.2768 9.24645C42.7456 10.1626 42.9764 11.2741 42.9693 12.581V23H39.1127V13.1776C39.1127 12.0838 38.8287 11.228 38.2605 10.6101C37.6994 9.99219 36.9217 9.68324 35.9274 9.68324C35.2527 9.68324 34.6525 9.83239 34.127 10.1307C33.6085 10.4219 33.2001 10.8445 32.9018 11.3984C32.6106 11.9524 32.465 12.6236 32.465 13.4119ZM48.7008 29.1364C48.1752 29.1364 47.6887 29.0938 47.2413 29.0085C46.801 28.9304 46.4494 28.8381 46.1866 28.7315L47.0815 25.7273C47.6426 25.8906 48.1433 25.9688 48.5836 25.9616C49.024 25.9545 49.411 25.8161 49.7449 25.5462C50.0858 25.2834 50.3734 24.843 50.6078 24.2251L50.938 23.3409L45.0041 6.63636H49.095L52.8663 18.9943H53.0368L56.8187 6.63636H60.9203L54.3684 24.9815C54.063 25.848 53.6582 26.5902 53.1539 27.2081C52.6497 27.8331 52.0318 28.3089 51.3002 28.6357C50.5758 28.9695 49.7093 29.1364 48.7008 29.1364ZM71.2008 23V1.18182H79.3826C81.0588 1.18182 82.465 1.47301 83.6014 2.0554C84.7449 2.63778 85.6078 3.45454 86.1902 4.50568C86.7797 5.54972 87.0744 6.76776 87.0744 8.1598C87.0744 9.55895 86.7761 10.7734 86.1795 11.8033C85.59 12.826 84.72 13.6179 83.5694 14.179C82.4189 14.733 81.0055 15.0099 79.3294 15.0099H73.502V11.7287H78.7967C79.7768 11.7287 80.5794 11.5937 81.2044 11.3239C81.8294 11.0469 82.291 10.6456 82.5893 10.12C82.8947 9.58736 83.0474 8.93395 83.0474 8.1598C83.0474 7.38565 82.8947 6.72514 82.5893 6.17827C82.2839 5.62429 81.8187 5.20526 81.1937 4.92116C80.5687 4.62997 79.7626 4.48438 78.7754 4.48438H75.1532V23H71.2008ZM82.4721 13.1136L87.8734 23H83.4629L78.1575 13.1136H82.4721ZM97.4455 23.3196C95.8475 23.3196 94.4625 22.968 93.2907 22.2649C92.1188 21.5618 91.2097 20.5781 90.5634 19.3139C89.9242 18.0497 89.6046 16.5724 89.6046 14.8821C89.6046 13.1918 89.9242 11.7109 90.5634 10.4396C91.2097 9.16832 92.1188 8.18111 93.2907 7.47798C94.4625 6.77486 95.8475 6.4233 97.4455 6.4233C99.0435 6.4233 100.428 6.77486 101.6 7.47798C102.772 8.18111 103.678 9.16832 104.317 10.4396C104.963 11.7109 105.286 13.1918 105.286 14.8821C105.286 16.5724 104.963 18.0497 104.317 19.3139C103.678 20.5781 102.772 21.5618 101.6 22.2649C100.428 22.968 99.0435 23.3196 97.4455 23.3196ZM97.4668 20.2301C98.3333 20.2301 99.0577 19.9922 99.6401 19.5163C100.222 19.0334 100.656 18.3871 100.94 17.5774C101.231 16.7678 101.377 15.8658 101.377 14.8714C101.377 13.87 101.231 12.9645 100.94 12.1548C100.656 11.3381 100.222 10.6882 99.6401 10.2053C99.0577 9.7223 98.3333 9.48082 97.4668 9.48082C96.579 9.48082 95.8404 9.7223 95.2509 10.2053C94.6685 10.6882 94.2317 11.3381 93.9405 12.1548C93.6564 12.9645 93.5144 13.87 93.5144 14.8714C93.5144 15.8658 93.6564 16.7678 93.9405 17.5774C94.2317 18.3871 94.6685 19.0334 95.2509 19.5163C95.8404 19.9922 96.579 20.2301 97.4668 20.2301ZM115.697 23.3196C114.099 23.3196 112.714 22.968 111.543 22.2649C110.371 21.5618 109.462 20.5781 108.815 19.3139C108.176 18.0497 107.857 16.5724 107.857 14.8821C107.857 13.1918 108.176 11.7109 108.815 10.4396C109.462 9.16832 110.371 8.18111 111.543 7.47798C112.714 6.77486 114.099 6.4233 115.697 6.4233C117.295 6.4233 118.68 6.77486 119.852 7.47798C121.024 8.18111 121.93 9.16832 122.569 10.4396C123.215 11.7109 123.538 13.1918 123.538 14.8821C123.538 16.5724 123.215 18.0497 122.569 19.3139C121.93 20.5781 121.024 21.5618 119.852 22.2649C118.68 22.968 117.295 23.3196 115.697 23.3196ZM115.719 20.2301C116.585 20.2301 117.31 19.9922 117.892 19.5163C118.474 19.0334 118.908 18.3871 119.192 17.5774C119.483 16.7678 119.629 15.8658 119.629 14.8714C119.629 13.87 119.483 12.9645 119.192 12.1548C118.908 11.3381 118.474 10.6882 117.892 10.2053C117.31 9.7223 116.585 9.48082 115.719 9.48082C114.831 9.48082 114.092 9.7223 113.503 10.2053C112.92 10.6882 112.484 11.3381 112.192 12.1548C111.908 12.9645 111.766 13.87 111.766 14.8714C111.766 15.8658 111.908 16.7678 112.192 17.5774C112.484 18.3871 112.92 19.0334 113.503 19.5163C114.092 19.9922 114.831 20.2301 115.719 20.2301ZM126.812 23V6.63636H130.498V9.4169H130.689C131.03 8.4794 131.595 7.74787 132.383 7.2223C133.172 6.68963 134.113 6.4233 135.206 6.4233C136.314 6.4233 137.248 6.69318 138.008 7.23295C138.775 7.76562 139.315 8.49361 139.628 9.4169H139.798C140.16 8.50781 140.771 7.78338 141.631 7.24361C142.497 6.69673 143.523 6.4233 144.709 6.4233C146.215 6.4233 147.444 6.89915 148.395 7.85085C149.347 8.80256 149.823 10.1911 149.823 12.0163V23H145.956V12.6129C145.956 11.5973 145.686 10.8551 145.146 10.3864C144.606 9.91051 143.946 9.67258 143.165 9.67258C142.234 9.67258 141.506 9.96378 140.981 10.5462C140.462 11.1214 140.203 11.8707 140.203 12.794V23H136.421V12.4531C136.421 11.608 136.165 10.9332 135.654 10.429C135.15 9.92472 134.489 9.67258 133.672 9.67258C133.118 9.67258 132.614 9.81463 132.16 10.0987C131.705 10.3757 131.343 10.7699 131.073 11.2812C130.803 11.7855 130.668 12.375 130.668 13.0497V23H126.812Z" fill="#4F4C4C"/>
</svg>
