<svg width="19" height="19" viewBox="0 0 19 19" fill="none" xmlns="http://www.w3.org/2000/svg">
<path d="M13.7478 12.0365L13.717 12.076H13.7671H14.3402C14.5588 12.076 14.767 12.1614 14.9206 12.3149L18.4258 15.8196C18.4259 15.8196 18.4259 15.8196 18.4259 15.8197C18.7434 16.1406 18.7434 16.6594 18.4224 16.9803L17.4274 17.9751L17.4273 17.9752C17.11 18.296 16.5911 18.2961 16.2701 17.9751L12.7647 14.4704C12.6112 14.3169 12.5258 14.1087 12.5258 13.8901V13.3171V13.267L12.4863 13.2978C11.2494 14.2648 9.69357 14.8394 8.00102 14.8394C3.97475 14.8394 0.712402 11.5776 0.712402 7.55202C0.712402 3.52645 3.97475 0.264648 8.00102 0.264648C12.0273 0.264648 15.2896 3.52645 15.2896 7.55202C15.2896 9.24427 14.715 10.7998 13.7478 12.0365ZM3.47628 7.55202C3.47628 10.0543 5.50183 12.076 8.00102 12.076C10.5038 12.076 12.5258 10.0508 12.5258 7.55202C12.5258 5.0497 10.5002 3.02805 8.00102 3.02805C5.49829 3.02805 3.47628 5.05324 3.47628 7.55202Z" fill="#A1A1A1" stroke="#E9E9E9" stroke-width="0.0488281"/>
</svg>
