<svg width="391" height="124" viewBox="0 0 391 124" fill="none" xmlns="http://www.w3.org/2000/svg">
<path d="M2.4858 24.9652V16.0909H44.2969V24.9652H28.7109V67H18.0717V24.9652H2.4858ZM61.946 16.0909V67H51.1825V16.0909H61.946ZM113.383 16.0909V67H104.086L81.938 34.9581H81.5652V67H70.8017V16.0909H80.2477L102.222 48.108H102.67V16.0909H113.383ZM119.293 16.0909H131.349L142.958 38.0156H143.455L155.064 16.0909H167.12L148.551 49.0028V67H137.862V49.0028L119.293 16.0909Z" fill="#4F4C4C"/>
<path d="M174.425 108V57.0909H194.51C198.355 57.0909 201.636 57.7786 204.354 59.1541C207.088 60.513 209.168 62.4437 210.593 64.946C212.035 67.4318 212.756 70.3568 212.756 73.7209C212.756 77.1016 212.027 80.0099 210.568 82.446C209.11 84.8655 206.997 86.7216 204.229 88.0142C201.478 89.3068 198.147 89.9531 194.237 89.9531H180.788V81.3026H192.496C194.551 81.3026 196.258 81.0208 197.617 80.4574C198.976 79.8939 199.987 79.0488 200.65 77.9219C201.329 76.795 201.669 75.3946 201.669 73.7209C201.669 72.0305 201.329 70.6053 200.65 69.4453C199.987 68.2853 198.968 67.407 197.592 66.8104C196.233 66.1972 194.518 65.8906 192.447 65.8906H185.188V108H174.425ZM201.918 84.8324L214.57 108H202.688L190.309 84.8324H201.918ZM267.145 82.5455C267.145 88.0971 266.093 92.8201 263.988 96.7145C261.9 100.609 259.049 103.584 255.437 105.638C251.841 107.677 247.797 108.696 243.306 108.696C238.782 108.696 234.722 107.669 231.126 105.614C227.53 103.559 224.688 100.584 222.599 96.6896C220.511 92.7952 219.467 88.0805 219.467 82.5455C219.467 76.9938 220.511 72.2708 222.599 68.3764C224.688 64.482 227.53 61.5156 231.126 59.4773C234.722 57.4223 238.782 56.3949 243.306 56.3949C247.797 56.3949 251.841 57.4223 255.437 59.4773C259.049 61.5156 261.9 64.482 263.988 68.3764C266.093 72.2708 267.145 76.9938 267.145 82.5455ZM256.232 82.5455C256.232 78.9493 255.694 75.9167 254.616 73.4474C253.556 70.9782 252.056 69.1056 250.117 67.8295C248.178 66.5535 245.908 65.9155 243.306 65.9155C240.704 65.9155 238.434 66.5535 236.495 67.8295C234.556 69.1056 233.048 70.9782 231.971 73.4474C230.91 75.9167 230.38 78.9493 230.38 82.5455C230.38 86.1416 230.91 89.1742 231.971 91.6435C233.048 94.1127 234.556 95.9853 236.495 97.2614C238.434 98.5374 240.704 99.1754 243.306 99.1754C245.908 99.1754 248.178 98.5374 250.117 97.2614C252.056 95.9853 253.556 94.1127 254.616 91.6435C255.694 89.1742 256.232 86.1416 256.232 82.5455ZM321.901 82.5455C321.901 88.0971 320.848 92.8201 318.744 96.7145C316.656 100.609 313.805 103.584 310.193 105.638C306.597 107.677 302.553 108.696 298.062 108.696C293.538 108.696 289.478 107.669 285.882 105.614C282.285 103.559 279.443 100.584 277.355 96.6896C275.267 92.7952 274.223 88.0805 274.223 82.5455C274.223 76.9938 275.267 72.2708 277.355 68.3764C279.443 64.482 282.285 61.5156 285.882 59.4773C289.478 57.4223 293.538 56.3949 298.062 56.3949C302.553 56.3949 306.597 57.4223 310.193 59.4773C313.805 61.5156 316.656 64.482 318.744 68.3764C320.848 72.2708 321.901 76.9938 321.901 82.5455ZM310.988 82.5455C310.988 78.9493 310.45 75.9167 309.372 73.4474C308.312 70.9782 306.812 69.1056 304.873 67.8295C302.934 66.5535 300.664 65.9155 298.062 65.9155C295.46 65.9155 293.19 66.5535 291.251 67.8295C289.312 69.1056 287.804 70.9782 286.727 73.4474C285.666 75.9167 285.136 78.9493 285.136 82.5455C285.136 86.1416 285.666 89.1742 286.727 91.6435C287.804 94.1127 289.312 95.9853 291.251 97.2614C293.19 98.5374 295.46 99.1754 298.062 99.1754C300.664 99.1754 302.934 98.5374 304.873 97.2614C306.812 95.9853 308.312 94.1127 309.372 91.6435C310.45 89.1742 310.988 86.1416 310.988 82.5455ZM329.874 57.0909H343.148L357.168 91.2955H357.765L371.784 57.0909H385.059V108H374.618V74.8643H374.196L361.021 107.751H353.912L340.737 74.7401H340.314V108H329.874V57.0909Z" fill="#4F4C4C"/>
</svg>
